<svg width="58" height="58" viewBox="0 0 58 58" fill="none" xmlns="http://www.w3.org/2000/svg">
<rect width="58" height="58" rx="14" fill="#F9F9F9"/>
<path d="M25.25 25.2545V18M25.25 25.2545H17M25.25 25.2545H33.125M25.25 18H18C17.4477 18 17 18.4477 17 19V25.2545M25.25 18H40C40.5523 18 41 18.4477 41 19V24.2545C41 24.8068 40.5523 25.2545 40 25.2545H33.125M17 25.2545V32.5091M17 32.5091H25.25M17 32.5091V38C17 38.5523 17.4477 39 18 39H25.25M33.125 32.5091V25.2545M33.125 32.5091H40C40.5523 32.5091 41 32.9568 41 33.5091V38C41 38.5523 40.5523 39 40 39H25.25M33.125 32.5091H25.25M25.25 39V32.5091" stroke="#0F0F0F" stroke-width="2" stroke-linecap="round"/>
</svg>
