<svg width="58" height="58" viewBox="0 0 58 58" fill="none" xmlns="http://www.w3.org/2000/svg">
<rect width="58" height="58" rx="14" fill="#F9F9F9"/>
<g clip-path="url(#clip0_32_668)">
<mask id="path-2-inside-1_32_668" fill="white">
<path d="M21.1565 29.4949C20.6461 29.4949 20.2276 29.0802 20.2772 28.5722C20.3681 27.6418 20.596 26.7282 20.9551 25.8614C21.4322 24.7094 22.1316 23.6627 23.0133 22.781C23.895 21.8993 24.9417 21.1999 26.0937 20.7228C27.2457 20.2456 28.4804 20 29.7272 20C30.9741 20 32.2088 20.2456 33.3608 20.7228C34.5128 21.1999 35.5595 21.8993 36.4412 22.781C37.3229 23.6627 38.0223 24.7094 38.4994 25.8614C38.8585 26.7282 39.0864 27.6418 39.1773 28.5722C39.2269 29.0802 38.8084 29.495 38.298 29.495C37.7875 29.495 37.3795 29.0797 37.3179 28.573C37.2344 27.8855 37.0578 27.2112 36.7917 26.5688C36.4074 25.6411 35.8442 24.7981 35.1341 24.0881C34.4241 23.378 33.5811 22.8148 32.6534 22.4305C31.7257 22.0463 30.7314 21.8485 29.7272 21.8485C28.7231 21.8485 27.7288 22.0463 26.8011 22.4305C25.8734 22.8148 25.0304 23.378 24.3204 24.0881C23.6103 24.7981 23.0471 25.6411 22.6628 26.5688C22.3967 27.2112 22.2201 27.8855 22.1366 28.573C22.075 29.0797 21.667 29.4949 21.1565 29.4949Z"/>
</mask>
<path d="M20.9551 25.8614L18.5427 24.8622L20.9551 25.8614ZM38.4994 25.8614L36.0871 26.8606L38.4994 25.8614ZM22.6628 26.5688L20.2505 25.5695L22.6628 26.5688ZM37.3179 28.573L34.7259 28.8878L37.3179 28.573ZM39.1773 28.5722L36.5785 28.8259L39.1773 28.5722ZM22.876 28.8259C22.9419 28.1514 23.1071 27.489 23.3674 26.8606L18.5427 24.8622C18.0849 25.9673 17.7943 27.1321 17.6785 28.3184L22.876 28.8259ZM23.3674 26.8606C23.7134 26.0254 24.2204 25.2666 24.8596 24.6273L21.167 20.9347C20.0428 22.0588 19.1511 23.3934 18.5427 24.8622L23.3674 26.8606ZM24.8596 24.6273C25.4989 23.9881 26.2577 23.4811 27.0929 23.1351L25.0945 18.3104C23.6257 18.9188 22.2911 19.8105 21.167 20.9347L24.8596 24.6273ZM27.0929 23.1351C27.9281 22.7892 28.8233 22.6111 29.7272 22.6111L29.7273 17.3889C28.1375 17.3889 26.5632 17.702 25.0945 18.3104L27.0929 23.1351ZM29.7272 22.6111C30.6312 22.6111 31.5264 22.7892 32.3616 23.1351L34.36 18.3104C32.8913 17.702 31.317 17.3889 29.7273 17.3889L29.7272 22.6111ZM32.3616 23.1351C33.1968 23.4811 33.9556 23.9881 34.5949 24.6273L38.2875 20.9347C37.1634 19.8105 35.8288 18.9188 34.36 18.3104L32.3616 23.1351ZM34.5949 24.6273C35.2341 25.2666 35.7411 26.0254 36.0871 26.8606L40.9118 24.8622C40.3034 23.3934 39.4117 22.0588 38.2875 20.9347L34.5949 24.6273ZM36.0871 26.8606C36.3474 27.489 36.5126 28.1514 36.5785 28.8259L41.776 28.3184C41.6602 27.1322 41.3696 25.9673 40.9118 24.8622L36.0871 26.8606ZM39.91 28.2581C39.798 27.3359 39.561 26.4313 39.204 25.5695L34.3793 27.568C34.5545 27.991 34.6709 28.4351 34.7259 28.8878L39.91 28.2581ZM39.204 25.5695C38.6885 24.325 37.933 23.1942 36.9805 22.2417L33.2878 25.9344C33.7554 26.402 34.1263 26.9571 34.3793 27.568L39.204 25.5695ZM36.9805 22.2417C36.028 21.2892 34.8972 20.5337 33.6527 20.0182L31.6542 24.8429C32.2651 25.0959 32.8202 25.4668 33.2878 25.9344L36.9805 22.2417ZM33.6527 20.0182C32.4082 19.5027 31.0743 19.2374 29.7273 19.2374L29.7272 24.4596C30.3885 24.4596 31.0433 24.5898 31.6542 24.8429L33.6527 20.0182ZM29.7273 19.2374C28.3802 19.2374 27.0463 19.5027 25.8018 20.0182L27.8003 24.8429C28.4112 24.5898 29.066 24.4596 29.7272 24.4596L29.7273 19.2374ZM25.8018 20.0182C24.5573 20.5337 23.4265 21.2892 22.474 22.2417L26.1667 25.9344C26.6343 25.4668 27.1894 25.0959 27.8003 24.8429L25.8018 20.0182ZM22.474 22.2417C21.5215 23.1942 20.766 24.325 20.2505 25.5695L25.0752 27.568C25.3282 26.9571 25.6991 26.402 26.1667 25.9344L22.474 22.2417ZM20.2505 25.5695C19.8935 26.4313 19.6565 27.3359 19.5445 28.2581L24.7286 28.8878C24.7836 28.4351 24.8999 27.991 25.0752 27.568L20.2505 25.5695ZM19.5445 28.2581C19.6182 27.6517 20.1569 26.8838 21.1565 26.8838V32.1061C23.1771 32.1061 24.5319 30.5077 24.7286 28.8878L19.5445 28.2581ZM38.298 26.8838C39.2976 26.8838 39.8363 27.6517 39.91 28.2581L34.7259 28.8878C34.9226 30.5077 36.2774 32.1061 38.298 32.1061L38.298 26.8838ZM36.5785 28.8259C36.4616 27.6284 37.4426 26.8838 38.298 26.8838L38.298 32.1061C40.1742 32.1061 41.9922 30.5319 41.776 28.3184L36.5785 28.8259ZM17.6785 28.3184C17.4623 30.5319 19.2803 32.1061 21.1565 32.1061V26.8838C22.0119 26.8838 22.9929 27.6284 22.876 28.8259L17.6785 28.3184Z" fill="#0F0F0F" mask="url(#path-2-inside-1_32_668)"/>
<path d="M18.3333 33.2929L20.2444 31.8065C21.2612 31.0157 22.6959 31.0572 23.6653 31.9054V31.9054C24.5965 32.7202 25.9636 32.7942 26.9773 32.0846L27.3758 31.8056C28.5317 30.9965 30.0802 31.0354 31.1939 31.9017V31.9017C32.2666 32.736 33.748 32.8059 34.8945 32.0764L35.2208 31.8687C36.5629 31.0146 38.2971 31.0964 39.5529 32.0731L41.1212 33.2929" stroke="#0F0F0F" stroke-width="1.56667" stroke-linecap="round"/>
<path d="M18.3333 37.0909L20.2444 35.6045C21.2612 34.8137 22.6959 34.8552 23.6653 35.7034V35.7034C24.5965 36.5182 25.9636 36.5921 26.9773 35.8826L27.3758 35.6036C28.5317 34.7944 30.0802 34.8334 31.1939 35.6997V35.6997C32.2666 36.534 33.748 36.6039 34.8945 35.8743L35.2208 35.6667C36.5629 34.8126 38.2971 34.8944 39.5529 35.8711L41.1212 37.0909" stroke="#0F0F0F" stroke-width="1.56667" stroke-linecap="round"/>
</g>
<g clip-path="url(#clip1_32_668)">
<mask id="path-6-inside-2_32_668" fill="white">
<path d="M21.1565 29.4949C20.6461 29.4949 20.2276 29.0802 20.2772 28.5722C20.3681 27.6418 20.596 26.7282 20.9551 25.8614C21.4322 24.7094 22.1316 23.6627 23.0133 22.781C23.895 21.8993 24.9417 21.1999 26.0937 20.7228C27.2457 20.2456 28.4804 20 29.7272 20C30.9741 20 32.2088 20.2456 33.3608 20.7228C34.5128 21.1999 35.5595 21.8993 36.4412 22.781C37.3229 23.6627 38.0223 24.7094 38.4994 25.8614C38.8585 26.7282 39.0864 27.6418 39.1773 28.5722C39.2269 29.0802 38.8084 29.495 38.298 29.495C37.7875 29.495 37.3795 29.0797 37.3179 28.573C37.2344 27.8855 37.0578 27.2112 36.7917 26.5688C36.4074 25.6411 35.8442 24.7981 35.1341 24.0881C34.4241 23.378 33.5811 22.8148 32.6534 22.4305C31.7257 22.0463 30.7314 21.8485 29.7272 21.8485C28.7231 21.8485 27.7288 22.0463 26.8011 22.4305C25.8734 22.8148 25.0304 23.378 24.3204 24.0881C23.6103 24.7981 23.0471 25.6411 22.6628 26.5688C22.3967 27.2112 22.2201 27.8855 22.1366 28.573C22.075 29.0797 21.667 29.4949 21.1565 29.4949Z"/>
</mask>
<path d="M20.9551 25.8614L18.5427 24.8622L20.9551 25.8614ZM38.4994 25.8614L36.0871 26.8606L38.4994 25.8614ZM22.6628 26.5688L20.2505 25.5695L22.6628 26.5688ZM37.3179 28.573L34.7259 28.8878L37.3179 28.573ZM39.1773 28.5722L36.5785 28.8259L39.1773 28.5722ZM22.876 28.8259C22.9419 28.1514 23.1071 27.489 23.3674 26.8606L18.5427 24.8622C18.0849 25.9673 17.7943 27.1321 17.6785 28.3184L22.876 28.8259ZM23.3674 26.8606C23.7134 26.0254 24.2204 25.2666 24.8596 24.6273L21.167 20.9347C20.0428 22.0588 19.1511 23.3934 18.5427 24.8622L23.3674 26.8606ZM24.8596 24.6273C25.4989 23.9881 26.2577 23.4811 27.0929 23.1351L25.0945 18.3104C23.6257 18.9188 22.2911 19.8105 21.167 20.9347L24.8596 24.6273ZM27.0929 23.1351C27.9281 22.7892 28.8233 22.6111 29.7272 22.6111L29.7273 17.3889C28.1375 17.3889 26.5632 17.702 25.0945 18.3104L27.0929 23.1351ZM29.7272 22.6111C30.6312 22.6111 31.5264 22.7892 32.3616 23.1351L34.36 18.3104C32.8913 17.702 31.317 17.3889 29.7273 17.3889L29.7272 22.6111ZM32.3616 23.1351C33.1968 23.4811 33.9556 23.9881 34.5949 24.6273L38.2875 20.9347C37.1634 19.8105 35.8288 18.9188 34.36 18.3104L32.3616 23.1351ZM34.5949 24.6273C35.2341 25.2666 35.7411 26.0254 36.0871 26.8606L40.9118 24.8622C40.3034 23.3934 39.4117 22.0588 38.2875 20.9347L34.5949 24.6273ZM36.0871 26.8606C36.3474 27.489 36.5126 28.1514 36.5785 28.8259L41.776 28.3184C41.6602 27.1322 41.3696 25.9673 40.9118 24.8622L36.0871 26.8606ZM39.91 28.2581C39.798 27.3359 39.561 26.4313 39.204 25.5695L34.3793 27.568C34.5545 27.991 34.6709 28.4351 34.7259 28.8878L39.91 28.2581ZM39.204 25.5695C38.6885 24.325 37.933 23.1942 36.9805 22.2417L33.2878 25.9344C33.7554 26.402 34.1263 26.9571 34.3793 27.568L39.204 25.5695ZM36.9805 22.2417C36.028 21.2892 34.8972 20.5337 33.6527 20.0182L31.6542 24.8429C32.2651 25.0959 32.8202 25.4668 33.2878 25.9344L36.9805 22.2417ZM33.6527 20.0182C32.4082 19.5027 31.0743 19.2374 29.7273 19.2374L29.7272 24.4596C30.3885 24.4596 31.0433 24.5898 31.6542 24.8429L33.6527 20.0182ZM29.7273 19.2374C28.3802 19.2374 27.0463 19.5027 25.8018 20.0182L27.8003 24.8429C28.4112 24.5898 29.066 24.4596 29.7272 24.4596L29.7273 19.2374ZM25.8018 20.0182C24.5573 20.5337 23.4265 21.2892 22.474 22.2417L26.1667 25.9344C26.6343 25.4668 27.1894 25.0959 27.8003 24.8429L25.8018 20.0182ZM22.474 22.2417C21.5215 23.1942 20.766 24.325 20.2505 25.5695L25.0752 27.568C25.3282 26.9571 25.6991 26.402 26.1667 25.9344L22.474 22.2417ZM20.2505 25.5695C19.8935 26.4313 19.6565 27.3359 19.5445 28.2581L24.7286 28.8878C24.7836 28.4351 24.8999 27.991 25.0752 27.568L20.2505 25.5695ZM19.5445 28.2581C19.6182 27.6517 20.1569 26.8838 21.1565 26.8838V32.1061C23.1771 32.1061 24.5319 30.5077 24.7286 28.8878L19.5445 28.2581ZM38.298 26.8838C39.2976 26.8838 39.8363 27.6517 39.91 28.2581L34.7259 28.8878C34.9226 30.5077 36.2774 32.1061 38.298 32.1061L38.298 26.8838ZM36.5785 28.8259C36.4616 27.6284 37.4426 26.8838 38.298 26.8838L38.298 32.1061C40.1742 32.1061 41.9922 30.5319 41.776 28.3184L36.5785 28.8259ZM17.6785 28.3184C17.4623 30.5319 19.2803 32.1061 21.1565 32.1061V26.8838C22.0119 26.8838 22.9929 27.6284 22.876 28.8259L17.6785 28.3184Z" fill="#0F0F0F" mask="url(#path-6-inside-2_32_668)"/>
<path d="M18.3333 33.2929L20.2444 31.8065C21.2612 31.0157 22.6959 31.0572 23.6653 31.9054V31.9054C24.5965 32.7202 25.9636 32.7942 26.9773 32.0846L27.3758 31.8056C28.5317 30.9965 30.0802 31.0354 31.1939 31.9017V31.9017C32.2666 32.736 33.748 32.8059 34.8945 32.0764L35.2208 31.8687C36.5629 31.0146 38.2971 31.0964 39.5529 32.0731L41.1212 33.2929" stroke="#0F0F0F" stroke-width="1.56667" stroke-linecap="round"/>
<path d="M18.3333 37.0909L20.2444 35.6045C21.2612 34.8137 22.6959 34.8552 23.6653 35.7034V35.7034C24.5965 36.5182 25.9636 36.5921 26.9773 35.8826L27.3758 35.6036C28.5317 34.7944 30.0802 34.8334 31.1939 35.6997V35.6997C32.2666 36.534 33.748 36.6039 34.8945 35.8743L35.2208 35.6667C36.5629 34.8126 38.2971 34.8944 39.5529 35.8711L41.1212 37.0909" stroke="#0F0F0F" stroke-width="1.56667" stroke-linecap="round"/>
</g>
<rect x="31" y="18" width="11" height="23" rx="1" stroke="#0F0F0F" stroke-width="2"/>
<rect x="17" y="18" width="11" height="23" rx="1" stroke="#0F0F0F" stroke-width="2"/>
<defs>
<clipPath id="clip0_32_668">
<rect width="11" height="18" fill="white" transform="translate(32 20)"/>
</clipPath>
<clipPath id="clip1_32_668">
<rect width="10" height="18" fill="white" transform="translate(17 20)"/>
</clipPath>
</defs>
</svg>
