<svg width="58" height="58" viewBox="0 0 58 58" fill="none" xmlns="http://www.w3.org/2000/svg">
<rect width="58" height="58" rx="14" fill="#F9F9F9"/>
<rect x="17" y="17" width="23" height="23" rx="3" stroke="#0F0F0F" stroke-width="2"/>
<path d="M30.1224 23.5889C31.2146 23.5889 32.1209 23.9548 32.8415 24.6866C33.5734 25.4072 33.9393 26.308 33.9393 27.3889C33.9393 28.4585 33.5734 29.3592 32.8415 30.0911C32.1209 30.8229 31.2146 31.1889 30.1224 31.1889H27.4033V34.6258C27.4033 35.0595 27.0517 35.4111 26.618 35.4111C26.1842 35.4111 25.8326 35.0595 25.8326 34.6258V24.5889C25.8326 24.0366 26.2804 23.5889 26.8326 23.5889H30.1224ZM30.1224 29.7195C30.7755 29.7195 31.3159 29.5 31.7438 29.0609C32.1716 28.6105 32.3855 28.0532 32.3855 27.3889C32.3855 26.7133 32.1716 26.156 31.7438 25.7169C31.3159 25.2778 30.7755 25.0582 30.1224 25.0582H27.4033V29.7195H30.1224Z" fill="#0F0F0F"/>
</svg>
