<svg width="58" height="58" viewBox="0 0 58 58" fill="none" xmlns="http://www.w3.org/2000/svg">
<rect width="58" height="58" rx="14" fill="#F9F9F9"/>
<path d="M16.9886 41.5317V38.2881M28.1098 41.5317V38.2881M28.1098 38.2881H16.9886M28.1098 38.2881V33.6542M16.9886 38.2881V33.6542M16.9886 33.6542H28.1098M16.9886 33.6542V29.9472M28.1098 33.6542V29.9472M28.1098 29.9472H16.9886M28.1098 29.9472V25.7767M28.1098 29.9472C28.7277 29.4838 30.6121 30.0398 33.2071 35.9711C35.4857 41.1793 39.1219 42.4812 41.2296 42.5121C41.6826 42.5187 42.0114 42.1265 42.0114 41.6734V39.475C42.0114 38.8721 41.4281 38.413 40.8323 38.3203C39.4419 38.1041 37.5636 36.9926 36.4508 33.6542C34.9679 29.2057 30.2723 26.549 28.1098 25.7767M16.9886 29.9472V21.9901C16.9886 21.7443 17.0863 21.5086 17.2601 21.3348L21.8939 16.701C22.2559 16.3391 22.8426 16.3391 23.2046 16.701L27.8384 21.3348C28.0122 21.5086 28.1098 21.7443 28.1098 21.9901V25.7767" stroke="#0F0F0F" stroke-width="1.85353" stroke-linecap="round"/>
<mask id="path-3-inside-1_32_670" fill="white">
<rect x="18.8422" y="22.533" width="7.41413" height="4.63383" rx="0.926767"/>
</mask>
<rect x="18.8422" y="22.533" width="7.41413" height="4.63383" rx="0.926767" stroke="#0F0F0F" stroke-width="2.7803" mask="url(#path-3-inside-1_32_670)"/>
</svg>
