<svg width="58" height="58" viewBox="0 0 58 58" fill="none" xmlns="http://www.w3.org/2000/svg">
<rect width="58" height="58" rx="14" fill="#F9F9F9"/>
<mask id="path-2-inside-1_32_671" fill="white">
<path fill-rule="evenodd" clip-rule="evenodd" d="M27 15C24.7909 15 23 16.7909 23 19V31.3782C21.1879 32.6258 20 34.7147 20 37.0811C20 40.9023 23.0977 44 26.9189 44C30.7401 44 33.8378 40.9023 33.8378 37.0811C33.8378 34.7861 32.7204 32.752 31 31.4933V19C31 16.7909 29.2091 15 27 15Z"/>
</mask>
<path d="M23 31.3782L24.1342 33.0256L25 32.4294V31.3782H23ZM31 31.4933H29V32.5082L29.8191 33.1075L31 31.4933ZM25 19C25 17.8954 25.8954 17 27 17V13C23.6863 13 21 15.6863 21 19H25ZM25 31.3782V19H21V31.3782H25ZM22 37.0811C22 35.4005 22.841 33.9159 24.1342 33.0256L21.8658 29.7309C19.5349 31.3358 18 34.0289 18 37.0811H22ZM26.9189 42C24.2023 42 22 39.7977 22 37.0811H18C18 42.0069 21.9931 46 26.9189 46V42ZM31.8378 37.0811C31.8378 39.7977 29.6356 42 26.9189 42V46C31.8447 46 35.8378 42.0069 35.8378 37.0811H31.8378ZM29.8191 33.1075C31.0469 34.0057 31.8378 35.4509 31.8378 37.0811H35.8378C35.8378 34.1212 34.394 31.4983 32.1809 29.8792L29.8191 33.1075ZM29 19V31.4933H33V19H29ZM27 17C28.1046 17 29 17.8954 29 19H33C33 15.6863 30.3137 13 27 13V17Z" fill="#0F0F0F" mask="url(#path-2-inside-1_32_671)"/>
<circle cx="26.9189" cy="37.081" r="3.45946" fill="#0F0F0F"/>
<path d="M26.9189 35.3513L26.9189 21.9999" stroke="#0F0F0F" stroke-width="2" stroke-linecap="round"/>
<circle cx="36" cy="20.8919" r="2.89189" stroke="#0F0F0F" stroke-width="2"/>
</svg>
