<svg width="58" height="58" viewBox="0 0 58 58" fill="none" xmlns="http://www.w3.org/2000/svg">
<rect x="6.10352e-05" y="0.00012207" width="58" height="58" rx="14" fill="#F9F9F9"/>
<mask id="path-2-inside-1_32_667" fill="white">
<path d="M19.9735 28.0001C19.4359 28.0001 18.9952 27.5633 19.0474 27.0283C19.1431 26.0484 19.3831 25.0862 19.7613 24.1733C20.2638 22.96 21.0004 21.8576 21.929 20.9291C22.8576 20.0005 23.96 19.2639 25.1732 18.7613C26.3865 18.2588 27.6868 18.0001 29.0001 18.0001C30.3133 18.0001 31.6136 18.2588 32.8269 18.7613C34.0402 19.2639 35.1425 20.0005 36.0711 20.9291C36.9997 21.8576 37.7363 22.96 38.2389 24.1733C38.617 25.0862 38.857 26.0484 38.9527 27.0283C39.005 27.5633 38.5643 28.0001 38.0267 28.0001C37.4891 28.0001 37.0593 27.5628 36.9945 27.0291C36.9066 26.3051 36.7205 25.5949 36.4403 24.9183C36.0355 23.9412 35.4423 23.0535 34.6945 22.3056C33.9467 21.5578 33.059 20.9646 32.0819 20.5599C31.1048 20.1552 30.0576 19.9469 29.0001 19.9469C27.9425 19.9469 26.8953 20.1552 25.9182 20.5599C24.9412 20.9646 24.0534 21.5578 23.3056 22.3056C22.5578 23.0535 21.9646 23.9412 21.5599 24.9183C21.2796 25.5949 21.0936 26.3051 21.0056 27.0291C20.9408 27.5628 20.511 28.0001 19.9735 28.0001Z"/>
</mask>
<path d="M21.0056 27.0291L19.0202 26.7879L21.0056 27.0291ZM36.9945 27.0291L38.9799 26.7879L36.9945 27.0291ZM38.9527 27.0283L40.9433 26.8339L38.9527 27.0283ZM38.0267 28.0001V30.0001V28.0001ZM21.0379 27.2226C21.1145 26.4387 21.3065 25.669 21.609 24.9387L17.9135 23.4079C17.4598 24.5034 17.1717 25.658 17.0569 26.8339L21.0379 27.2226ZM21.609 24.9387C22.0111 23.968 22.6003 23.0861 23.3432 22.3433L20.5148 19.5148C19.4005 20.6291 18.5166 21.952 17.9135 23.4079L21.609 24.9387ZM23.3432 22.3433C24.0861 21.6004 24.968 21.0111 25.9386 20.6091L24.4079 16.9136C22.952 17.5166 21.6291 18.4005 20.5148 19.5148L23.3432 22.3433ZM25.9386 20.6091C26.9092 20.207 27.9495 20.0001 29.0001 20.0001V16.0001C27.4242 16.0001 25.8638 16.3105 24.4079 16.9136L25.9386 20.6091ZM29.0001 20.0001C30.0506 20.0001 31.0909 20.207 32.0615 20.6091L33.5923 16.9136C32.1364 16.3105 30.5759 16.0001 29.0001 16.0001V20.0001ZM32.0615 20.6091C33.0321 21.0111 33.914 21.6004 34.6569 22.3433L37.4853 19.5148C36.371 18.4005 35.0482 17.5166 33.5923 16.9136L32.0615 20.6091ZM34.6569 22.3433C35.3998 23.0861 35.9891 23.9681 36.3911 24.9387L40.0866 23.4079C39.4836 21.952 38.5996 20.6291 37.4853 19.5148L34.6569 22.3433ZM36.3911 24.9387C36.6936 25.669 36.8856 26.4387 36.9622 27.2226L40.9433 26.8339C40.8284 25.658 40.5404 24.5034 40.0866 23.4079L36.3911 24.9387ZM38.9799 26.7879C38.8701 25.8841 38.6379 24.9975 38.288 24.1529L34.5925 25.6837C34.8031 26.1922 34.943 26.726 35.0091 27.2702L38.9799 26.7879ZM38.288 24.1529C37.7828 22.9332 37.0423 21.825 36.1088 20.8914L33.2803 23.7199C33.8424 24.282 34.2883 24.9493 34.5925 25.6837L38.288 24.1529ZM36.1088 20.8914C35.1752 19.9579 34.067 19.2174 32.8473 18.7122L31.3165 22.4077C32.0509 22.7119 32.7182 23.1578 33.2803 23.7199L36.1088 20.8914ZM32.8473 18.7122C31.6275 18.2069 30.3203 17.9469 29.0001 17.9469V21.9469C29.795 21.9469 30.5821 22.1035 31.3165 22.4077L32.8473 18.7122ZM29.0001 17.9469C27.6799 17.9469 26.3726 18.2069 25.1529 18.7122L26.6836 22.4077C27.418 22.1035 28.2051 21.9469 29.0001 21.9469V17.9469ZM25.1529 18.7122C23.9332 19.2174 22.8249 19.9579 21.8914 20.8914L24.7198 23.7199C25.2819 23.1578 25.9492 22.7119 26.6836 22.4077L25.1529 18.7122ZM21.8914 20.8914C20.9578 21.825 20.2173 22.9332 19.7121 24.1529L23.4076 25.6837C23.7118 24.9493 24.1577 24.282 24.7198 23.7199L21.8914 20.8914ZM19.7121 24.1529C19.3623 24.9975 19.13 25.8841 19.0202 26.7879L22.991 27.2702C23.0571 26.726 23.197 26.1922 23.4076 25.6837L19.7121 24.1529ZM19.0202 26.7879C19.0589 26.469 19.3544 26.0001 19.9735 26.0001V30.0001C21.6677 30.0001 22.8226 28.6566 22.991 27.2702L19.0202 26.7879ZM38.0267 26.0001C38.6457 26.0001 38.9412 26.469 38.9799 26.7879L35.0091 27.2702C35.1775 28.6566 36.3324 30.0001 38.0267 30.0001L38.0267 26.0001ZM36.9622 27.2226C36.8869 26.4513 37.5181 26.0001 38.0267 26.0001L38.0267 30.0001C39.6104 30.0001 41.1231 28.6753 40.9433 26.8339L36.9622 27.2226ZM17.0569 26.8339C16.8771 28.6753 18.3897 30.0001 19.9735 30.0001V26.0001C20.482 26.0001 21.1132 26.4513 21.0379 27.2226L17.0569 26.8339Z" fill="#0F0F0F" mask="url(#path-2-inside-1_32_667)"/>
<path d="M17.0001 32.0001L19.0128 30.4346C20.0836 29.6018 21.5947 29.6454 22.6156 30.5388V30.5388C23.5964 31.3969 25.0362 31.4748 26.1038 30.7275L26.7573 30.2701C27.8358 29.5151 29.2804 29.5515 30.3195 30.3597L30.7598 30.7022C31.7606 31.4805 33.1426 31.5458 34.2123 30.8651L35.3593 30.1352C36.4289 29.4545 37.811 29.5197 38.8117 30.2981L41.0001 32.0001" stroke="#0F0F0F" stroke-width="1.7" stroke-linecap="round"/>
<path d="M17.0001 36.0001L19.0128 34.4346C20.0836 33.6018 21.5947 33.6454 22.6156 34.5388V34.5388C23.5964 35.3969 25.0362 35.4748 26.1038 34.7275L26.7573 34.2701C27.8358 33.5151 29.2804 33.5515 30.3195 34.3597L30.7598 34.7022C31.7606 35.4805 33.1426 35.5458 34.2123 34.8651L35.3593 34.1352C36.4289 33.4545 37.811 33.5197 38.8117 34.2981L41.0001 36.0001" stroke="#0F0F0F" stroke-width="1.7" stroke-linecap="round"/>
<path d="M17.0001 40.0001L19.0128 38.4346C20.0836 37.6018 21.5947 37.6454 22.6156 38.5388V38.5388C23.5964 39.3969 25.0362 39.4748 26.1038 38.7275L26.7573 38.2701C27.8358 37.5151 29.2804 37.5515 30.3195 38.3597L30.7598 38.7022C31.7606 39.4805 33.1426 39.5458 34.2123 38.8651L35.3593 38.1352C36.4289 37.4545 37.811 37.5197 38.8117 38.2981L41.0001 40.0001" stroke="#0F0F0F" stroke-width="1.7" stroke-linecap="round"/>
</svg>
