<svg width="54" height="54" viewBox="0 0 54 54" fill="none" xmlns="http://www.w3.org/2000/svg">
<rect width="54" height="54" rx="12" fill="white"/>
<path fill-rule="evenodd" clip-rule="evenodd" d="M25.2819 14.2578C24.9094 14.457 24.7262 14.8183 24.687 15.227C24.6701 15.4247 24.6447 15.621 24.6103 15.8165C24.5371 16.2314 24.3984 16.8178 24.1385 17.4809C23.6202 18.8037 22.629 20.4128 20.7161 21.6083C18.0203 23.2931 17.0203 27.0788 17.4476 30.4678C17.8839 33.9278 19.8598 37.514 23.7692 38.8171C24.1587 38.947 24.5881 38.8543 24.8893 38.5753C25.258 38.234 25.2768 37.7816 25.1831 37.325C25.1143 36.9898 24.9687 36.1507 24.9687 35.1483C24.9687 34.824 24.9837 34.4912 25.0184 34.1575C25.6192 35.5348 26.4337 36.5392 27.2478 37.2575C28.4587 38.326 29.6031 38.7145 29.9437 38.8148C30.2022 38.891 30.4769 38.8957 30.7301 38.7943C33.7193 37.5987 35.6012 35.976 36.6525 34.1209C37.7015 32.2698 37.8492 30.318 37.6145 28.5978C37.3812 26.8864 36.7648 25.3579 36.2229 24.2741C35.8131 23.4544 35.4351 22.8672 35.2616 22.6101C35.0488 22.2951 34.7716 22.0519 34.3769 22.007C34.0623 21.9713 33.7472 22.0697 33.5089 22.2782L31.7483 23.8189C31.8995 21.3753 31.0399 19.3223 29.9729 17.7752C29.1982 16.6517 28.3141 15.7889 27.6295 15.2089C27.2856 14.9174 26.9873 14.6936 26.7715 14.5403C26.6634 14.4636 26.5757 14.4042 26.5127 14.3627C26.1396 14.1169 25.6922 14.0384 25.2819 14.2578ZM22.7344 35.7879C22.7245 35.5836 22.7187 35.3696 22.7187 35.1483C22.7187 33.9639 22.8838 32.469 23.5377 31.0795C23.7568 30.6142 24.0306 30.1606 24.3715 29.7346C24.6583 29.3761 25.1342 29.2278 25.5739 29.36C26.0135 29.4922 26.3289 29.8783 26.3704 30.3355C26.6248 33.1348 27.7503 34.7002 28.7364 35.5703C29.2402 36.015 29.7263 36.2937 30.0785 36.459C31.4375 36.6248 34.1205 34.0252 34.6949 33.0116C35.439 31.6986 35.5725 30.2754 35.3852 28.9019C35.1664 27.2977 34.5092 25.8133 33.9863 24.8503L30.4908 27.909C30.0912 28.2587 29.5014 28.2813 29.0761 27.9633C28.6509 27.6451 28.5059 27.0731 28.7285 26.5909C30.2091 23.3829 29.3618 20.8522 28.1208 19.0526C27.628 18.3383 27.0735 17.7434 26.5775 17.2827C26.4874 17.5989 26.3746 17.9416 26.2335 18.3018C26.033 18.8134 25.7745 19.3621 25.4417 19.9207C24.6965 21.1717 23.5792 22.4722 21.9085 23.5164C20.2747 24.5374 19.306 27.2206 19.6799 30.1863C19.9618 32.4222 20.9777 34.5148 22.7344 35.7879Z" fill="#0F0F0F"/>
</svg>
