<svg width="79" height="21" viewBox="0 0 79 21" fill="none" xmlns="http://www.w3.org/2000/svg">
<g clip-path="url(#clip0_501_759)">
<path d="M22.3819 17.1581L19.0949 11.1944H16.0745V17.1581H13.5205L13.5204 0.787109H19.739C21.1308 0.787109 22.3079 1.30163 23.2702 2.33068C24.2475 3.34412 24.7361 4.58364 24.7361 6.04924C24.7361 7.09388 24.4473 8.05275 23.87 8.92588C23.3073 9.78341 22.5669 10.4071 21.649 10.7969L25.1802 17.1581H22.3819ZM16.0745 3.31293V8.78556H19.739C20.4201 8.78556 20.9975 8.5205 21.4713 7.99039C21.9451 7.46028 22.1821 6.81323 22.1821 6.04924C22.1821 5.28526 21.9451 4.63821 21.4713 4.1081C20.9975 3.57799 20.4201 3.31293 19.739 3.31293H16.0745Z" fill="#F9F9F9"/>
<path d="M32.4804 0.787109C34.6125 0.787109 36.3818 1.57448 37.7884 3.14923C39.2097 4.72396 39.9205 6.66512 39.9205 8.97265C39.9205 11.2646 39.2097 13.2058 37.7884 14.7961C36.3818 16.3708 34.6125 17.1581 32.4804 17.1581H26.3728V0.787109H32.4804ZM32.4804 14.5856C33.9462 14.5856 35.1381 14.0554 36.056 12.9953C36.9889 11.935 37.4553 10.5942 37.4553 8.97265C37.4553 7.33555 36.9889 5.99467 36.056 4.95004C35.1381 3.88982 33.9462 3.35971 32.4804 3.35971H28.9269V14.5856H32.4804Z" fill="#F9F9F9"/>
<path d="M65.0341 0.787109V17.1581H62.48V5.48795L57.7495 13.7202H57.4386L52.708 5.46456V17.1581H50.1539V0.787109H52.9079L57.594 8.97265L62.3025 0.787109H65.0341Z" fill="#F9F9F9"/>
<path d="M40.8698 7.62561H48.4535V10.1654H40.8698C40.9423 9.32053 40.9423 8.47048 40.8698 7.62561Z" fill="#F9F9F9"/>
<path d="M36.5664 0.787109H48.9882V3.32689H39.1433L38.9756 3.12648C38.3796 2.41486 37.7255 1.75967 37.0208 1.16842L36.5664 0.787109Z" fill="#F9F9F9"/>
<path d="M39.1433 14.6184H48.9882V17.1582H36.4794L36.5581 17.0975C37.48 16.3876 38.3288 15.5777 39.0901 14.6811L39.1433 14.6184Z" fill="#F9F9F9"/>
<path d="M4.05387 17.1582L6.32212 13.8606H12.3223V17.1582L12.3225 0.787113L10.6807 0.787109L0.77356 17.1582H4.05387ZM12.3223 11.3348L7.56743 11.3348L12.3223 3.70631V11.3348Z" fill="#F9F9F9"/>
<path d="M74.4868 17.1582L72.2185 13.8606H66.2183V17.1582V0.787113L67.86 0.787109L77.7672 17.1582H74.4868ZM66.2183 11.3348L70.9733 11.3348L66.2183 3.70631V11.3348Z" fill="#F9F9F9"/>
<path d="M0.136719 18.6835H1.94066V20.3241H1.70833V18.9042H0.369045V20.3241H0.136719V18.6835ZM2.31179 20.3241V18.6835H3.58274C3.72092 18.6835 3.82874 18.7267 3.90618 18.813C3.98514 18.8994 4.02462 19.0305 4.02462 19.2064C4.02462 19.3822 3.98438 19.5134 3.9039 19.5998C3.82494 19.6845 3.71485 19.7269 3.57364 19.7269H2.54411V20.3241H2.31179ZM2.54411 19.5062H3.57364C3.64045 19.5062 3.6936 19.4822 3.73307 19.4343C3.77255 19.3863 3.7923 19.3103 3.7923 19.2064C3.7923 19.1025 3.77255 19.0265 3.73307 18.9786C3.69511 18.929 3.64121 18.9042 3.57136 18.9042H2.54411V19.5062ZM5.33053 20.3481C5.00709 20.3481 4.78084 20.3265 4.65177 20.2833C4.5227 20.2386 4.44071 20.1546 4.40579 20.0314C4.38148 19.9468 4.36934 19.7717 4.36934 19.5062C4.36934 19.236 4.38072 19.0609 4.4035 18.9809C4.43842 18.8562 4.52119 18.7714 4.65177 18.7267C4.78236 18.6819 5.00861 18.6595 5.33053 18.6595C5.65396 18.6595 5.87946 18.6819 6.007 18.7267C6.13608 18.7699 6.21884 18.8538 6.25528 18.9786C6.27958 19.0632 6.29172 19.2392 6.29172 19.5062C6.29172 19.7749 6.28033 19.9491 6.25756 20.0291C6.22263 20.1538 6.14064 20.2386 6.01156 20.2833C5.88249 20.3265 5.65548 20.3481 5.33053 20.3481ZM5.33053 20.1274C5.68888 20.1274 5.89996 20.0994 5.96373 20.0435C6.02751 19.9875 6.05939 19.8084 6.05939 19.5062C6.05939 19.2024 6.02751 19.0225 5.96373 18.9665C5.90147 18.9106 5.69041 18.8826 5.33053 18.8826C4.97065 18.8826 4.75883 18.9106 4.69504 18.9665C4.63279 19.0225 4.60167 19.2024 4.60167 19.5062C4.60167 19.8068 4.63355 19.9859 4.69733 20.0435C4.7611 20.0994 4.97217 20.1274 5.33053 20.1274ZM6.62226 18.6835H8.11415V18.9042H6.85459V19.3815H8.07087V19.6021H6.85459V20.1035H8.11415V20.3241H6.62226V18.6835ZM8.47852 20.3241V18.6835H8.71084V19.3479H8.94317L9.88614 18.6835H10.2847L9.19144 19.4559L10.3553 20.3241H9.97269L8.94317 19.5685H8.71084V20.3241H8.47852ZM10.5559 18.6835H12.1845V18.9042H11.4874V20.3241H11.2551V18.9042H10.5559V18.6835ZM12.4393 18.6835H12.6716V19.3791H14.0132V18.6835H14.2456V20.3241H14.0132V19.5998H12.6716V20.3241H12.4393V18.6835ZM15.5513 20.3481C15.2278 20.3481 15.0015 20.3265 14.8726 20.2833C14.7435 20.2386 14.6614 20.1546 14.6266 20.0314C14.6022 19.9468 14.5901 19.7717 14.5901 19.5062C14.5901 19.236 14.6015 19.0609 14.6243 18.9809C14.6592 18.8562 14.7419 18.7714 14.8726 18.7267C15.0032 18.6819 15.2293 18.6595 15.5513 18.6595C15.8747 18.6595 16.1002 18.6819 16.2278 18.7267C16.3568 18.7699 16.4396 18.8538 16.476 18.9786C16.5003 19.0632 16.5125 19.2392 16.5125 19.5062C16.5125 19.7749 16.5012 19.9491 16.4783 20.0291C16.4434 20.1538 16.3614 20.2386 16.2323 20.2833C16.1032 20.3265 15.8763 20.3481 15.5513 20.3481ZM15.5513 20.1274C15.9097 20.1274 16.1207 20.0994 16.1845 20.0435C16.2483 19.9875 16.2801 19.8084 16.2801 19.5062C16.2801 19.2024 16.2483 19.0225 16.1845 18.9665C16.1222 18.9106 15.9112 18.8826 15.5513 18.8826C15.1914 18.8826 14.9796 18.9106 14.9158 18.9665C14.8536 19.0225 14.8225 19.2024 14.8225 19.5062C14.8225 19.8068 14.8543 19.9859 14.9181 20.0435C14.9819 20.0994 15.193 20.1274 15.5513 20.1274ZM16.843 18.6835H18.3349V18.9042H17.0754V19.3815H18.2916V19.6021H17.0754V20.1035H18.3349V20.3241H16.843V18.6835ZM20.8817 18.6835L21.7016 20.3241H21.4397L21.2551 19.9595H20.1437L19.9614 20.3241H19.6995L20.5194 18.6835H20.8817ZM21.1549 19.7413L20.7313 18.8802H20.6721L20.2484 19.7413H21.1549ZM21.9344 20.3241H22.1644V18.9042H23.3603V18.6835H21.9344V20.3241ZM23.596 18.6835H25.0879V18.9042H23.8283V19.3815H25.0447V19.6021H23.8283V20.1035H25.0879V20.3241H23.596V18.6835ZM25.4227 18.6835H25.655V19.3791H26.9966V18.6835H27.229V20.3241H26.9966V19.5998H25.655V20.3241H25.4227V18.6835ZM27.5074 18.6835H29.136V18.9042H28.439V20.3241H28.2067V18.9042H27.5074V18.6835ZM29.5959 19.5062C29.5959 19.8052 29.6262 19.9835 29.687 20.041C29.7477 20.0987 29.9345 20.1274 30.2473 20.1274C30.5374 20.1274 30.7143 20.1106 30.778 20.0771C30.8525 20.0371 30.8896 19.9291 30.8896 19.7533H31.122C31.122 20.0139 31.0704 20.1786 30.9671 20.2474C30.8638 20.3145 30.6239 20.3481 30.2473 20.3481C29.8631 20.3481 29.6202 20.3002 29.5184 20.2042C29.4167 20.1083 29.3658 19.8756 29.3658 19.5062C29.3658 19.1337 29.4159 18.8994 29.5162 18.8035C29.6164 18.7075 29.8601 18.6595 30.2473 18.6595C30.6269 18.6595 30.8676 18.693 30.9693 18.7603C31.0711 18.8274 31.122 18.9921 31.122 19.2544H30.8896C30.8896 19.0784 30.8555 18.9729 30.7871 18.9377C30.7188 18.901 30.5389 18.8826 30.2473 18.8826C29.933 18.8826 29.7454 18.9113 29.6847 18.969C29.6255 19.0249 29.5959 19.204 29.5959 19.5062ZM31.3711 18.6835H32.9997V18.9042H32.3027V20.3241H32.0703V18.9042H31.3711V18.6835ZM34.9833 19.8443C34.9833 20.0059 34.9408 20.1267 34.8558 20.2065C34.7723 20.2849 34.6492 20.3241 34.4868 20.3241H33.2363V18.6835H34.4322C34.5916 18.6835 34.7138 18.7235 34.7989 18.8035C34.8839 18.8833 34.9264 18.9986 34.9264 19.1489C34.9264 19.3135 34.868 19.4191 34.751 19.4654C34.8178 19.4894 34.871 19.5294 34.9105 19.5853C34.9591 19.6541 34.9833 19.7404 34.9833 19.8443ZM34.6963 19.1489C34.6963 19.0737 34.6781 19.0161 34.6417 18.9761C34.5976 18.9281 34.5278 18.9042 34.4322 18.9042H33.4687V19.3695H34.4322C34.5309 19.3695 34.5991 19.3519 34.6371 19.3167C34.6766 19.2799 34.6963 19.224 34.6963 19.1489ZM33.4687 19.5901V20.1035H34.4845C34.5726 20.1035 34.6386 20.0803 34.6827 20.0339C34.7282 19.9859 34.751 19.9236 34.751 19.8468C34.751 19.7717 34.7282 19.7101 34.6827 19.6621C34.6371 19.6141 34.5711 19.5901 34.4845 19.5901H33.4687ZM36.3065 20.3481C35.983 20.3481 35.7568 20.3265 35.6277 20.2833C35.4987 20.2386 35.4166 20.1546 35.3817 20.0314C35.3574 19.9468 35.3452 19.7717 35.3452 19.5062C35.3452 19.236 35.3566 19.0609 35.3795 18.9809C35.4143 18.8562 35.4972 18.7714 35.6277 18.7267C35.7583 18.6819 35.9846 18.6595 36.3065 18.6595C36.6298 18.6595 36.8554 18.6819 36.9829 18.7267C37.112 18.7699 37.1947 18.8538 37.2312 18.9786C37.2555 19.0632 37.2677 19.2392 37.2677 19.5062C37.2677 19.7749 37.2562 19.9491 37.2335 20.0291C37.1986 20.1538 37.1165 20.2386 36.9874 20.2833C36.8584 20.3265 36.6314 20.3481 36.3065 20.3481ZM36.3065 20.1274C36.6648 20.1274 36.8759 20.0994 36.9397 20.0435C37.0034 19.9875 37.0353 19.8084 37.0353 19.5062C37.0353 19.2024 37.0034 19.0225 36.9397 18.9665C36.8774 18.9106 36.6663 18.8826 36.3065 18.8826C35.9466 18.8826 35.7347 18.9106 35.671 18.9665C35.6087 19.0225 35.5775 19.2024 35.5775 19.5062C35.5775 19.8068 35.6095 19.9859 35.6732 20.0435C35.7371 20.0994 35.9481 20.1274 36.3065 20.1274ZM40.473 19.8443C40.473 20.0059 40.4305 20.1267 40.3454 20.2065C40.2619 20.2849 40.1389 20.3241 39.9764 20.3241H38.7259V18.6835H39.9217C40.0811 18.6835 40.2035 18.7235 40.2884 18.8035C40.3735 18.8833 40.416 18.9986 40.416 19.1489C40.416 19.3135 40.3575 19.4191 40.2406 19.4654C40.3074 19.4894 40.3605 19.5294 40.4 19.5853C40.4486 19.6541 40.473 19.7404 40.473 19.8443ZM40.186 19.1489C40.186 19.0737 40.1677 19.0161 40.1314 18.9761C40.0873 18.9281 40.0174 18.9042 39.9217 18.9042H38.9582V19.3695H39.9217C40.0204 19.3695 40.0888 19.3519 40.1267 19.3167C40.1662 19.2799 40.186 19.224 40.186 19.1489ZM38.9582 19.5901V20.1035H39.9742C40.0623 20.1035 40.1282 20.0803 40.1723 20.0339C40.2178 19.9859 40.2406 19.9236 40.2406 19.8468C40.2406 19.7717 40.2178 19.7101 40.1723 19.6621C40.1267 19.6141 40.0607 19.5901 39.9742 19.5901H38.9582ZM42.1722 19.5062C42.1722 19.8052 42.2026 19.9835 42.2633 20.041C42.324 20.0987 42.5108 20.1274 42.8236 20.1274C43.1137 20.1274 43.2905 20.1106 43.3544 20.0771C43.4287 20.0371 43.4659 19.9291 43.4659 19.7533H43.6982C43.6982 20.0139 43.6466 20.1786 43.5434 20.2474C43.4401 20.3145 43.2002 20.3481 42.8236 20.3481C42.4395 20.3481 42.1965 20.3002 42.0948 20.2042C41.993 20.1083 41.9422 19.8756 41.9422 19.5062C41.9422 19.1337 41.9923 18.8994 42.0925 18.8035C42.1927 18.7075 42.4364 18.6595 42.8236 18.6595C43.2033 18.6595 43.4439 18.693 43.5457 18.7603C43.6474 18.8274 43.6982 18.9921 43.6982 19.2544H43.4659C43.4659 19.0784 43.4318 18.9729 43.3635 18.9377C43.2951 18.901 43.1152 18.8826 42.8236 18.8826C42.5093 18.8826 42.3218 18.9113 42.2611 18.969C42.2018 19.0249 42.1722 19.204 42.1722 19.5062ZM45.1523 18.8706H44.5464C44.3641 18.8706 44.2367 18.9049 44.1637 18.9738C44.0711 19.0616 44.0248 19.2312 44.0248 19.4822C44.0248 19.7333 44.0711 19.9075 44.1637 20.0051C44.2412 20.0867 44.3688 20.1274 44.5464 20.1274H45.1523V20.3241H45.3846V20.1274H45.9882C46.1659 20.1274 46.2935 20.0867 46.3708 20.0051C46.4635 19.9075 46.5098 19.7333 46.5098 19.4822C46.5098 19.2344 46.4635 19.0657 46.3708 18.9761C46.298 18.9058 46.1704 18.8706 45.9882 18.8706H45.3846V18.6835H45.1523V18.8706ZM45.1523 19.0912V19.9043H44.5464C44.4431 19.9043 44.3688 19.8732 44.3232 19.8108C44.2792 19.7469 44.2572 19.6373 44.2572 19.4822C44.2572 19.3319 44.2792 19.2296 44.3232 19.1753C44.3673 19.1193 44.4416 19.0912 44.5464 19.0912H45.1523ZM45.3846 19.9043V19.0912H45.9882C46.0945 19.0912 46.1696 19.1184 46.2137 19.1728C46.2577 19.2272 46.2797 19.3303 46.2797 19.4822C46.2797 19.6373 46.257 19.7469 46.2114 19.8108C46.1674 19.8732 46.0929 19.9043 45.9882 19.9043H45.3846ZM46.8714 18.6835H48.3633V18.9042H47.1037V19.3815H48.32V19.6021H47.1037V20.1035H48.3633V20.3241H46.8714V18.6835ZM48.6889 20.3241V18.6835H49.9599C50.0981 18.6835 50.2058 18.7267 50.2833 18.813C50.3623 18.8994 50.4017 19.0305 50.4017 19.2064C50.4017 19.3822 50.3615 19.5134 50.281 19.5998C50.2021 19.6845 50.092 19.7269 49.9508 19.7269H48.9212V20.3241H48.6889ZM48.9212 19.5062H49.9508C50.0175 19.5062 50.0707 19.4822 50.1102 19.4343C50.1497 19.3863 50.1694 19.3103 50.1694 19.2064C50.1694 19.1025 50.1497 19.0265 50.1102 18.9786C50.0722 18.929 50.0184 18.9042 49.9484 18.9042H48.9212V19.5062ZM50.7328 18.6835H52.2246V18.9042H50.9651V19.3815H52.1814V19.6021H50.9651V20.1035H52.2246V20.3241H50.7328V18.6835ZM53.899 19.2328V18.6859H55.4684V20.1035H55.58V20.7198H55.3659V20.3241H53.8877V20.7198H53.6736V20.1035H53.7874C53.8163 19.9979 53.8422 19.8532 53.8649 19.6692C53.8877 19.4838 53.899 19.3383 53.899 19.2328ZM55.2361 18.9065H54.1314V19.2328C54.1314 19.3575 54.1223 19.5054 54.1041 19.6765C54.0858 19.8476 54.0623 19.9899 54.0335 20.1035H55.2361V18.9065ZM55.8688 18.6835H57.3607V18.9042H56.1011V19.3815H57.3173V19.6021H56.1011V20.1035H57.3607V20.3241H55.8688V18.6835ZM59.4241 19.8443C59.4241 20.0059 59.3817 20.1267 59.2967 20.2065C59.2131 20.2849 59.0901 20.3241 58.9276 20.3241H57.6772V18.6835H58.873C59.0324 18.6835 59.1546 18.7235 59.2397 18.8035C59.3247 18.8833 59.3673 18.9986 59.3673 19.1489C59.3673 19.3135 59.3088 19.4191 59.1919 19.4654C59.2587 19.4894 59.3118 19.5294 59.3513 19.5853C59.3999 19.6541 59.4241 19.7404 59.4241 19.8443ZM59.1371 19.1489C59.1371 19.0737 59.119 19.0161 59.0825 18.9761C59.0385 18.9281 58.9687 18.9042 58.873 18.9042H57.9095V19.3695H58.873C58.9717 19.3695 59.04 19.3519 59.0779 19.3167C59.1175 19.2799 59.1371 19.224 59.1371 19.1489ZM57.9095 19.5901V20.1035H58.9253C59.0134 20.1035 59.0795 20.0803 59.1235 20.0339C59.1691 19.9859 59.1919 19.9236 59.1919 19.8468C59.1919 19.7717 59.1691 19.7101 59.1235 19.6621C59.0779 19.6141 59.0119 19.5901 58.9253 19.5901H57.9095ZM59.7724 18.6835H61.2643V18.9042H60.0047V19.3815H61.2211V19.6021H60.0047V20.1035H61.2643V20.3241H59.7724V18.6835ZM61.549 20.1035H61.6401C61.6932 20.1035 61.7342 20.0571 61.7631 19.9643C61.798 19.8524 61.8155 19.666 61.8155 19.4054V19.367V19.3335V19.3072C61.8155 19.2783 61.8148 19.2503 61.8132 19.2232C61.8132 19.1944 61.8132 19.1672 61.8132 19.1416V18.6835H63.4054V20.3241H63.173V18.9042H62.0455V19.2135V19.324C62.0455 19.4759 62.0409 19.6085 62.0318 19.7221C62.0182 19.8995 61.9938 20.0371 61.959 20.1346C61.915 20.2609 61.8534 20.3241 61.7744 20.3241H61.549V20.1035ZM64.76 20.3481C64.4366 20.3481 64.2103 20.3265 64.0812 20.2833C63.9522 20.2386 63.8702 20.1546 63.8352 20.0314C63.811 19.9468 63.7988 19.7717 63.7988 19.5062C63.7988 19.236 63.8101 19.0609 63.833 18.9809C63.8678 18.8562 63.9507 18.7714 64.0812 18.7267C64.2118 18.6819 64.4381 18.6595 64.76 18.6595C65.0835 18.6595 65.3089 18.6819 65.4364 18.7267C65.5655 18.7699 65.6482 18.8538 65.6847 18.9786C65.7091 19.0632 65.7212 19.2392 65.7212 19.5062C65.7212 19.7749 65.7098 19.9491 65.687 20.0291C65.6521 20.1538 65.5701 20.2386 65.4411 20.2833C65.312 20.3265 65.085 20.3481 64.76 20.3481ZM64.76 20.1274C65.1183 20.1274 65.3294 20.0994 65.3932 20.0435C65.4569 19.9875 65.4888 19.8084 65.4888 19.5062C65.4888 19.2024 65.4569 19.0225 65.3932 18.9665C65.331 18.9106 65.1198 18.8826 64.76 18.8826C64.4001 18.8826 64.1882 18.9106 64.1245 18.9665C64.0623 19.0225 64.0311 19.2024 64.0311 19.5062C64.0311 19.8068 64.063 19.9859 64.1267 20.0435C64.1906 20.0994 64.4016 20.1274 64.76 20.1274ZM66.0768 18.6835H67.8807V20.3241H67.6484V18.9042H66.3091V20.3241H66.0768V18.6835ZM68.7164 18.6835L69.5227 20.0314L70.329 18.6835H70.7436V20.3241H70.5136V18.9042H70.468L69.5957 20.3241H69.4499L68.5775 18.9042H68.5343V20.3241H68.302V18.6835H68.7164ZM71.1743 18.6835H72.6662V18.9042H71.4066V19.3815H72.623V19.6021H71.4066V20.1035H72.6662V20.3241H71.1743V18.6835ZM73.0009 18.6835H73.2333V19.3791H74.5749V18.6835H74.8072V20.3241H74.5749V19.5998H73.2333V20.3241H73.0009V18.6835ZM75.0857 18.6835H76.7142V18.9042H76.0173V20.3241H75.7849V18.9042H75.0857V18.6835ZM78.0557 18.6835L78.8756 20.3241H78.6137L78.4292 19.9595H77.3176L77.1354 20.3241H76.8735L77.6935 18.6835H78.0557ZM78.3289 19.7413L77.9052 18.8802H77.846L77.4224 19.7413H78.3289Z" fill="#F9F9F9"/>
</g>
<defs>
<clipPath id="clip0_501_759">
<rect width="79" height="20" fill="white" transform="translate(0 0.787109)"/>
</clipPath>
</defs>
</svg>
