<svg width="58" height="58" viewBox="0 0 58 58" fill="none" xmlns="http://www.w3.org/2000/svg">
<rect width="58" height="58" rx="14" fill="#F9F9F9"/>
<path fill-rule="evenodd" clip-rule="evenodd" d="M21.5847 14.0939C21.2143 14.2254 20.9583 14.4142 20.749 14.7099C20.5033 15.0572 20.4107 15.4467 20.4107 16.1337V16.7321L19.705 16.7561C19.0772 16.7775 18.9636 16.7981 18.6747 16.9428C18.2842 17.1383 17.9872 17.4763 17.8314 17.9025C17.7242 18.196 17.7163 18.3584 17.7163 20.2871C17.7163 22.2888 17.7202 22.361 17.8332 22.4851C18.0027 22.6713 18.3039 22.6587 18.4574 22.4589C18.5723 22.3095 18.5762 22.2388 18.5762 20.3116C18.5762 18.1081 18.5851 18.0468 18.9416 17.7865C19.0963 17.6735 19.2089 17.6529 19.7658 17.6359L20.4107 17.6162V21.347V25.0779H19.4935H18.5762V24.6117C18.5762 24.211 18.5581 24.125 18.4472 23.9987C18.2609 23.7864 18.0173 23.7723 17.831 23.9631C17.7346 24.0617 17.7163 24.1586 17.7163 24.5707V25.061L17.3114 25.0995C16.8318 25.1451 16.5992 25.2361 16.3781 25.4644C16.0093 25.8454 16.027 25.6618 16.007 29.3316C15.9863 33.1559 15.9873 33.1684 16.3691 33.5591C16.6467 33.8434 16.8977 33.9367 17.3853 33.9372L17.7135 33.9375L17.7293 38.3527L17.745 42.7679L17.8743 43.0156C18.0772 43.4041 18.3274 43.6588 18.6804 43.8363L19.0062 44H28.0065H37.0068L37.2746 43.8637C37.6463 43.6745 37.9425 43.3622 38.1153 42.9771C38.2388 42.702 38.2657 42.5429 38.2861 41.968L38.3103 41.2854L39.0058 41.2599C39.6163 41.2375 39.7371 41.2155 39.9951 41.0797C40.3656 40.8847 40.6096 40.6362 40.8072 40.2524C40.9613 39.9532 40.9622 39.9442 40.981 38.5306L41 37.1097L40.8548 36.9611C40.6818 36.7841 40.4806 36.771 40.2951 36.9245C40.1614 37.0352 40.1594 37.0535 40.1311 38.4166C40.0997 39.9304 40.0965 39.9442 39.7078 40.2413C39.55 40.3618 39.522 40.3623 32.1872 40.3776L24.8248 40.3929V37.1652V33.9375H28.2533H31.6815L31.9833 33.7836C32.1799 33.6834 32.3386 33.5469 32.4388 33.3919L32.5927 33.1541L32.6083 29.5856C32.6233 26.1615 32.6194 26.0082 32.5135 25.7968C32.3853 25.5409 32.2147 25.3703 31.9334 25.2167C31.745 25.1139 31.5224 25.1061 28.2788 25.0899L24.8248 25.0726V19.9706V14.8686H32.1406H39.4563L39.6791 14.9968C39.821 15.0785 39.9434 15.2129 40.0165 15.3674C40.1298 15.6068 40.1311 15.7296 40.1311 25.4522C40.1311 32.2778 40.1498 35.3304 40.192 35.411C40.3423 35.6985 40.8052 35.6636 40.9297 35.3553C40.975 35.243 40.9886 32.3946 40.9776 25.2539L40.9624 15.3087L40.8217 15.0183C40.6484 14.6606 40.3255 14.3326 39.9702 14.1535L39.7012 14.0179L30.7868 14.0047C22.4402 13.9925 21.8542 13.9981 21.5847 14.0939ZM23.965 19.9732V25.0779H22.6168H21.2686L21.2839 20.2519L21.2993 15.426L21.4264 15.2436C21.6586 14.9105 21.8173 14.8715 22.9474 14.87L23.965 14.8686V19.9732ZM28.0346 17.6996C27.9304 17.7722 27.7911 17.9062 27.7252 17.9973C27.6089 18.1579 27.6052 18.2251 27.6052 20.1975C27.6052 22.1331 27.6109 22.2422 27.7212 22.4375C27.7902 22.5597 27.9411 22.6969 28.0938 22.7761L28.3504 22.9094L33.0271 22.8935L37.7037 22.8776L37.9091 22.7172C38.2877 22.4216 38.3048 22.303 38.2853 20.1077C38.2687 18.2407 38.2632 18.1561 38.1481 17.9972C38.0821 17.9062 37.9429 17.7722 37.8386 17.6996L37.6491 17.5676H32.9366H28.2241L28.0346 17.6996ZM37.4367 20.2373V22.0268H32.9366H28.4365V20.2373V18.4477H32.9366H37.4367V20.2373ZM31.6794 26.1034L31.8215 26.2488L31.8058 29.5699C31.7906 32.7798 31.7863 32.8937 31.6788 32.9742C31.5841 33.045 30.4852 33.0574 24.3012 33.0574H17.0349L16.9457 32.927C16.8675 32.8127 16.8564 32.3886 16.8564 29.4989V26.2012L17.0075 26.0796C17.1585 25.958 17.1614 25.9579 24.3479 25.9579H31.5373L31.6794 26.1034ZM18.9695 27.3022L18.8342 27.4144V29.3497C18.8342 31.1704 18.8407 31.2922 18.9434 31.4084C19.071 31.5526 19.3596 31.5727 19.5255 31.4488C19.621 31.3775 19.6408 31.2711 19.6654 30.7008L19.6941 30.0357L20.1814 30.0035C20.7116 29.9685 20.9231 29.8837 21.2088 29.5912C21.4498 29.3445 21.5567 29.1191 21.5968 28.7725C21.6494 28.3179 21.5261 27.9729 21.1877 27.6282C20.8224 27.2558 20.609 27.1901 19.7655 27.1901C19.2005 27.1901 19.0853 27.2063 18.9695 27.3022ZM22.9904 27.3661C22.8805 27.4786 22.8758 27.5617 22.8758 29.361C22.8758 31.6951 22.7744 31.4924 23.9273 31.464C24.6887 31.4452 24.7552 31.434 25.0033 31.2848C25.6022 30.9245 25.916 30.3396 25.9586 29.5045C26.0096 28.5089 25.6685 27.7775 24.9919 27.4315C24.6455 27.2544 24.6111 27.2487 23.8698 27.2487C23.1814 27.2487 23.0936 27.2605 22.9904 27.3661ZM27.7405 27.537L27.6052 27.6491V29.5957V31.5423L27.7405 31.6544C27.9159 31.7997 28.0971 31.7966 28.2854 31.645C28.4347 31.5248 28.4365 31.5144 28.4365 30.7649V30.0064H28.916C29.4966 30.0064 29.6976 29.8933 29.6976 29.5664C29.6976 29.2394 29.4966 29.1263 28.916 29.1263H28.4365V28.7156V28.3049H28.9836C29.4882 28.3049 29.5418 28.2936 29.6715 28.1608C29.8521 27.9761 29.8555 27.7215 29.6796 27.5523C29.5559 27.4334 29.4903 27.4248 28.7114 27.4248C27.9741 27.4248 27.8599 27.438 27.7405 27.537ZM20.5871 28.2417C20.8129 28.4729 20.8156 28.7511 20.5941 28.9684C20.4588 29.1011 20.3758 29.128 20.0639 29.1407L19.6941 29.1556L19.6776 28.6129L19.6611 28.0702H20.0403C20.383 28.0702 20.4356 28.0867 20.5871 28.2417ZM24.768 28.3502C25.0211 28.6093 25.1112 28.8909 25.1099 29.4197C25.1081 30.1612 24.8017 30.5506 24.1652 30.6203C23.9555 30.6433 23.7703 30.6482 23.7537 30.6312C23.737 30.6142 23.7094 30.0441 23.6924 29.3645L23.6613 28.1289H24.1065C24.545 28.1289 24.555 28.1322 24.768 28.3502ZM20.423 36.9445C20.4389 39.8793 20.4423 39.9582 20.5625 40.2243C20.7197 40.5723 21.0583 40.9188 21.4183 41.1002L21.7005 41.2424L29.5737 41.258L37.4469 41.2738L37.4275 41.914C37.4061 42.6214 37.3503 42.7584 36.9788 43.0172L36.7892 43.1493H28.0115C19.578 43.1493 19.2259 43.145 19.0358 43.0407C18.927 42.9809 18.7855 42.8601 18.7214 42.7724C18.6071 42.6156 18.6046 42.5314 18.5895 38.2751L18.574 33.9375H19.4904H20.4067L20.423 36.9445ZM23.965 37.1646V40.3916L22.9474 40.3907C22.0002 40.3897 21.9144 40.3806 21.7065 40.2587C21.2593 39.9962 21.2706 40.0849 21.2706 36.8281V33.9375H22.6178H23.965V37.1646ZM29.3797 35.4311C29.3024 35.5102 29.239 35.6434 29.239 35.727C29.239 35.8106 29.3024 35.9438 29.3797 36.0231L29.5205 36.1671H32.9091C35.188 36.1671 36.335 36.1468 36.4114 36.1049C36.6868 35.954 36.6555 35.4544 36.3635 35.3408C36.2856 35.3104 34.7639 35.287 32.8729 35.287H29.5205L29.3797 35.4311ZM29.3797 37.4259C29.3024 37.5052 29.239 37.6384 29.239 37.722C29.239 37.8056 29.3024 37.9388 29.3797 38.018L29.5205 38.162H32.9091C35.188 38.162 36.335 38.1416 36.4114 38.0998C36.6868 37.9489 36.6555 37.4492 36.3635 37.3356C36.2856 37.3053 34.7639 37.2819 32.8729 37.2819H29.5205L29.3797 37.4259Z" fill="#161616"/>
</svg>
