<svg width="1260" height="595" viewBox="0 0 1260 595" fill="none" xmlns="http://www.w3.org/2000/svg" xmlns:xlink="http://www.w3.org/1999/xlink">
<rect width="1260" height="595" rx="20" fill="url(#pattern0)"/>
<defs>
<pattern id="pattern0" patternContentUnits="objectBoundingBox" width="1" height="1">
<use xlink:href="#image0_511_1351" transform="matrix(0.00025 0 0 0.000529412 0 -0.0625)"/>
</pattern>
<image id="image0_511_1351" width="4000" height="2125" xlink:href="@img/selection.png"/>
</defs>
<g style="mix-blend-mode:plus-lighter">
<path d="M678.98 342.333C681.401 331.842 668.136 328.378 661.201 327.958H660.353L659.55 276.437L397.277 221.475L235.712 188L228.979 198.099H227.344L226.286 199.831V202.909L212.715 223.682V255.915L207 264.869V296.948L375.979 331.867L477.988 353.051L628.291 384.826C639.992 388.659 650.063 383.229 653.635 380.034L678.98 342.333Z" fill="#0E4572"/>
</g>
<g style="mix-blend-mode:plus-lighter">
<path d="M208.136 270.72V321.232L226.792 325.198C229.912 326.215 230.183 329.238 229.929 330.623L198.395 377.586H203.481V375.89L265.787 375.127V369.787H289.607V367.837H291.302V377.416L354.117 376.907L354.541 375.382L416.508 374.703V368.939H419.39H440.243V366.82H442.193V374.703H504.923L505.689 428.147H519.281C522.82 428.147 524.616 430.506 525.072 431.686V482.677C524.686 486.216 521.499 487.086 519.953 487.079L149.088 489.027C134.778 490.897 126.255 485.402 123.781 482.421L95.426 428.962L77.5387 394.814C76.563 392.293 77.1322 391.189 77.5387 390.952L96.544 362.291V328.448L113.11 303.751H114.431L125.001 287.693V278.14L125.712 277.327L132.827 278.14V277.327L133.335 265.029L138.315 265.74L144.21 257L206.104 269.806L208.136 270.72Z" fill="#0E4572"/>
</g>

</svg>
