<svg width="698" height="310" viewBox="0 0 698 310" fill="none" xmlns="http://www.w3.org/2000/svg" xmlns:xlink="http://www.w3.org/1999/xlink">
<rect width="698" height="310" rx="20" fill="url(#pattern0)"/>
<defs>
<pattern id="pattern0" patternContentUnits="objectBoundingBox" width="1" height="1">
<use xlink:href="#image0_533_2038" transform="matrix(0.00025 0 0 0.000562903 0 -0.0980847)"/>
</pattern>
<image id="image0_533_2038" width="4000" height="2125" xlink:href="@img/selection-744.png"/>
</defs>
<g style="mix-blend-mode:plus-lighter">
<path d="M115.006 139.813V167.742L125.322 169.935C127.047 170.498 127.197 172.17 127.056 172.935L109.62 198.903H112.432V197.965L146.883 197.543V194.59H160.055V193.512H160.992V198.809L195.725 198.528L195.959 197.684L230.223 197.309V194.122H231.816H243.347V192.95H244.425V197.309H279.111L279.534 226.86H287.05C289.007 226.86 290 228.164 290.252 228.817V257.011C290.038 258.968 288.276 259.449 287.422 259.445L82.3564 260.523C74.444 261.557 69.731 258.518 68.3635 256.87L52.6848 227.311L42.7942 208.429C42.2547 207.035 42.5694 206.424 42.7942 206.293L53.3029 190.446V171.732L62.4629 158.077H63.1935L69.0379 149.198V143.915L69.4313 143.466L73.365 143.915V143.466L73.646 136.666L76.3996 137.059L79.659 132.226L113.883 139.307L115.006 139.813Z" fill="#0E4572"/>
</g>
<g style="mix-blend-mode:plus-lighter">
<path d="M377.096 180.055C378.434 174.254 371.1 172.339 367.265 172.107H366.796L366.352 143.619L221.332 113.229L131.996 94.719L128.273 100.303H127.369L126.784 101.261V102.962L119.281 114.449V132.272L116.12 137.223V154.96L209.555 174.268L265.96 185.982L349.068 203.551C355.538 205.671 361.106 202.668 363.082 200.902L377.096 180.055Z" fill="#0E4572"/>
</g>

</svg>
