<svg width="1260" height="504" viewBox="0 0 1260 504" fill="none" xmlns="http://www.w3.org/2000/svg" xmlns:xlink="http://www.w3.org/1999/xlink">
<rect width="1260" height="504" fill="url(#pattern0)"/>
<g style="mix-blend-mode:plus-lighter">
<path d="M78 284V323.5L1149 275.5L1176 289V241.5L1168 234.5V223.5L1169 224V222.5L1167.5 221L1155 221.5L1149 216L1108.5 218.5L1108 217H1110L1109.5 216L1106.5 213.5L1107.5 213V212.5L1105 210.5H1104.5L1088.5 211V212.5H1089.5V213V219.5H1088.5L970 227.5V209L962.5 205.5V194L963.5 194.5V192.5L959 190.5V189.5L958.5 189L956.5 187.5H954.5L948 184L939 185V186.5H940.5V193.5L938 192.5H932.5V194.5H932L872 199.5L867.5 198H862.5V234L767 240L747 234L735 234.5V235V237H737V242L677 245.5V243.5L663 239.5L651.5 240V248L586 251V235.5L572.5 232.5V223.5L573.5 222L547 216H540V217.5H541.5V225L532 223L528 223.5V225L485.5 229L480 227H475V259L422.5 262L395.5 257.5H386V259H387.5V264.5L350 266.5V264.5L331 261.5L321.5 262V263.5H322.5V268.5L290 270V256.5L273.5 254V245L242 240H236.5V240.5V241L238 241.5V248.5L225 247H221.5V248.5H221L190 250.5L185 249.5L184.5 250H184H181V250.5V277.5L154 279L123 275.5L117.5 276V281.5L78 284Z" fill="#1D5685"/>
</g>
<g style="mix-blend-mode:plus-lighter">
<path d="M78 323.5V354.5L1149 320L1176 331.5V289L1149 275.5L78 323.5Z" fill="#1D5685"/>
</g>
<g style="mix-blend-mode:plus-lighter">
<path d="M78 354V382.5L1149 366L1176 371.5V331.5L1149 320L78 354Z" fill="#1D5685"/>
</g>
<g style="mix-blend-mode:plus-lighter">
<path d="M78 412V452.5L1148.5 471L1176 463V413.5L1148.5 412H78Z" fill="#1D5685"/>
</g>
<g style="mix-blend-mode:plus-lighter">
<path d="M78 382.5V412.5L1148.5 412L1176 413.5V371.5L1149.5 366L78 382.5Z" fill="#1D5685"/>
</g>
<defs>
<pattern id="pattern0" patternContentUnits="objectBoundingBox" width="1" height="1">
<use xlink:href="#image0_505_1007" transform="scale(0.00025 0.000625)"/>
</pattern>
<image id="image0_505_1007" width="4000" height="1600" xlink:href="@img/house-one.png"/>
</defs>
</svg>
