<svg width="116" height="58" viewBox="0 0 116 58" fill="none" xmlns="http://www.w3.org/2000/svg">
<rect width="116" height="58" rx="12" fill="white"/>
<g clip-path="url(#clip0_506_1034)">
<mask id="mask0_506_1034" style="mask-type:luminance" maskUnits="userSpaceOnUse" x="15" y="14" width="86" height="30">
<path d="M101 14H15V44H101V14Z" fill="white"/>
</mask>
<g mask="url(#mask0_506_1034)">
<path d="M42.7688 13.9998V14.0053L40.0821 16.6527V13.9998H37.3944L32.916 18.4114V29.8819H34.7074V19.2941L38.2905 15.7646V29.8819H40.0821V19.2941L43.6646 15.7646V29.8819H45.4562V13.9998H42.7688Z" fill="#1E2321"/>
<path d="M15.0011 29.8817H22.1671V13.9995H19.4794L15 18.4113L15.0011 18.4123V29.8817ZM20.3755 15.7643V28.1169H16.7927V19.2936L20.3755 15.7643Z" fill="#1E2321"/>
<path d="M31.1238 14H23.958V29.8821H31.1238V14ZM25.7493 15.7647H29.3323V28.1176H25.7493V15.7647Z" fill="#1E2321"/>
<path d="M15.001 33.4123H45.456V31.6475H15.001V33.4123Z" fill="#1E2321"/>
<path d="M15.001 35.1768V44.0001H16.7926V42.2355H27.5414V35.1768H15.001ZM25.7499 40.4708H16.7926V36.9415H25.7499V40.4708Z" fill="#1E2321"/>
<path d="M29.333 35.1768V42.2355H36.4991V44.0001H38.2904V42.2355H45.4563V35.1768H29.333ZM31.1243 36.9415H36.4988V40.4708H31.1243V36.9415ZM43.6648 40.4708H38.2904V36.9415H43.6648V40.4708Z" fill="#1E2321"/>
<path d="M73.7631 33.8517H70.5439V25.9124H75.8633V27.2948H72.1144V28.9001H73.7631C75.3782 28.9001 76.3712 29.9272 76.3712 31.376C76.3712 32.8262 75.3893 33.8517 73.7631 33.8517ZM73.6842 30.2836H72.1144V32.4698H73.6842C74.3841 32.4698 74.8018 32.0348 74.8018 31.376C74.8018 30.7299 74.3841 30.2836 73.6842 30.2836Z" fill="#1E2321"/>
<path d="M83.0827 33.8517L82.6078 32.4473H79.7507L79.2645 33.8517H77.6279L80.5528 25.9124H81.7835L84.7198 33.8517H83.0827ZM81.2076 28.2542L80.1911 31.1421H82.1896L81.2076 28.2542Z" fill="#1E2321"/>
<path d="M90.6578 33.8517V30.528H87.9364V33.8517H86.3672V25.9124H87.9364V29.1567H90.6578V25.9124H92.2284V33.8517H90.6578Z" fill="#1E2321"/>
<path d="M94.6875 33.8517V25.9124H96.2566V29.6816L98.8547 25.9124H100.73L98.0302 29.6375L101 33.8517H99.081L96.2566 29.7033V33.8517H94.6875Z" fill="#1E2321"/>
<path d="M59.7873 43.9972H57.9961V14.0044H59.7873V43.9972Z" fill="#7FCB2C"/>
</g>
</g>
<defs>
<clipPath id="clip0_506_1034">
<rect width="86" height="30" fill="white" transform="translate(15 14)"/>
</clipPath>
</defs>
</svg>
