<svg width="26" height="27" viewBox="0 0 26 27" fill="none" xmlns="http://www.w3.org/2000/svg">
<rect y="0.787109" width="26" height="25.9999" rx="8" fill="white"/>
<path d="M19.75 10.7871L17.0794 12.2708C15.5905 13.0979 14.8461 13.5116 14.0577 13.6737C13.3599 13.8172 12.6401 13.8172 11.9423 13.6737C11.154 13.5116 10.4095 13.0979 8.9206 12.2708L6.25 10.7871M8.65 19.0371H17.35C18.1901 19.0371 18.6102 19.0371 18.931 18.8736C19.2132 18.7298 19.4427 18.5003 19.5865 18.2181C19.75 17.8973 19.75 17.4772 19.75 16.6371V10.9371C19.75 10.097 19.75 9.67699 19.5865 9.35612C19.4427 9.07388 19.2132 8.84441 18.931 8.7006C18.6102 8.53711 18.1901 8.53711 17.35 8.53711H8.65C7.80992 8.53711 7.38988 8.53711 7.06902 8.7006C6.78677 8.84441 6.5573 9.07388 6.41349 9.35612C6.25 9.67699 6.25 10.097 6.25 10.9371V16.6371C6.25 17.4772 6.25 17.8973 6.41349 18.2181C6.5573 18.5003 6.78677 18.7298 7.06902 18.8736C7.38988 19.0371 7.80992 19.0371 8.65 19.0371Z" stroke="#0F0F0F" stroke-width="1.5" stroke-linecap="round" stroke-linejoin="round"/>
</svg>
