<svg width="26" height="26" viewBox="0 0 26 26" fill="none" xmlns="http://www.w3.org/2000/svg">
<rect width="26" height="25.9999" rx="8" fill="#0F0F0F"/>
<path d="M19.75 10L17.0794 11.4837C15.5905 12.3108 14.8461 12.7244 14.0577 12.8866C13.3599 13.0301 12.6401 13.0301 11.9423 12.8866C11.154 12.7244 10.4095 12.3108 8.9206 11.4837L6.25 10M8.65 18.25H17.35C18.1901 18.25 18.6102 18.25 18.931 18.0865C19.2132 17.9427 19.4427 17.7132 19.5865 17.431C19.75 17.1101 19.75 16.6901 19.75 15.85V10.15C19.75 9.30992 19.75 8.88988 19.5865 8.56901C19.4427 8.28677 19.2132 8.0573 18.931 7.91349C18.6102 7.75 18.1901 7.75 17.35 7.75H8.65C7.80992 7.75 7.38988 7.75 7.06902 7.91349C6.78677 8.0573 6.5573 8.28677 6.41349 8.56901C6.25 8.88988 6.25 9.30992 6.25 10.15V15.85C6.25 16.6901 6.25 17.1101 6.41349 17.431C6.5573 17.7132 6.78677 17.9427 7.06902 18.0865C7.38988 18.25 7.80992 18.25 8.65 18.25Z" stroke="#F9F9F9" stroke-width="1.5" stroke-linecap="round" stroke-linejoin="round"/>
</svg>
