<svg width="26" height="27" viewBox="0 0 26 27" fill="none" xmlns="http://www.w3.org/2000/svg">
<g clip-path="url(#clip0_501_751)">
<rect y="0.787109" width="26" height="25.9999" rx="8" fill="white"/>
<path d="M13 26.787C20.1797 26.787 26 20.9668 26 13.7871C26 6.60739 20.1797 0.787109 13 0.787109C5.8203 0.787109 0 6.60739 0 13.7871C0 20.9668 5.8203 26.787 13 26.787Z" fill="url(#paint0_linear_501_751)"/>
<path fill-rule="evenodd" clip-rule="evenodd" d="M5.88455 13.6498C9.67432 11.9987 12.2014 10.9102 13.4659 10.3843C17.0761 8.88264 17.8263 8.62179 18.3152 8.61318C18.4228 8.61129 18.6632 8.63794 18.819 8.76432C18.9505 8.87104 18.9867 9.0152 19.004 9.11638C19.0213 9.21756 19.0429 9.44805 19.0257 9.62814C18.8301 11.6837 17.9836 16.6721 17.5529 18.9744C17.3707 19.9486 17.0118 20.2753 16.6645 20.3072C15.9095 20.3767 15.3363 19.8083 14.6051 19.329C13.4609 18.579 12.8145 18.1121 11.7039 17.3803C10.4204 16.5344 11.2525 16.0696 11.9839 15.3098C12.1753 15.111 15.5016 12.0855 15.566 11.8111C15.574 11.7768 15.5815 11.6488 15.5055 11.5812C15.4295 11.5137 15.3173 11.5368 15.2363 11.5552C15.1216 11.5812 13.2938 12.7893 9.75286 15.1795C9.23404 15.5358 8.76411 15.7094 8.34306 15.7003C7.87889 15.6902 6.98602 15.4378 6.32227 15.2221C5.50814 14.9574 4.86109 14.8175 4.91743 14.3681C4.94678 14.134 5.26915 13.8946 5.88455 13.6498Z" fill="black"/>
</g>
<defs>
<linearGradient id="paint0_linear_501_751" x1="13" y1="0.787109" x2="13" y2="26.5942" gradientUnits="userSpaceOnUse">
<stop stop-color="white"/>
<stop offset="1" stop-color="white"/>
</linearGradient>
<clipPath id="clip0_501_751">
<rect y="0.787109" width="26" height="25.9999" rx="8" fill="white"/>
</clipPath>
</defs>
</svg>
