<svg width="26" height="26" viewBox="0 0 26 26" fill="none" xmlns="http://www.w3.org/2000/svg">
<g clip-path="url(#clip0_228_4613)">
<rect width="26" height="25.9999" rx="8" fill="#0F0F0F"/>
<path d="M13 25.9999C20.1797 25.9999 26 20.1797 26 13C26 5.82028 20.1797 0 13 0C5.8203 0 0 5.82028 0 13C0 20.1797 5.8203 25.9999 13 25.9999Z" fill="#0F0F0F"/>
<path fill-rule="evenodd" clip-rule="evenodd" d="M5.88455 12.8627C9.67432 11.2116 12.2014 10.1231 13.4659 9.59715C17.0761 8.09553 17.8263 7.83469 18.3152 7.82607C18.4228 7.82418 18.6632 7.85083 18.819 7.97721C18.9505 8.08393 18.9867 8.22809 19.004 8.32927C19.0213 8.43045 19.0429 8.66094 19.0257 8.84103C18.8301 10.8966 17.9836 15.885 17.5529 18.1873C17.3707 19.1615 17.0118 19.4882 16.6645 19.5201C15.9095 19.5896 15.3363 19.0212 14.6051 18.5419C13.4609 17.7919 12.8145 17.325 11.7039 16.5931C10.4204 15.7473 11.2525 15.2825 11.9839 14.5227C12.1753 14.3239 15.5016 11.2984 15.566 11.024C15.574 10.9897 15.5815 10.8617 15.5055 10.7941C15.4295 10.7266 15.3173 10.7497 15.2363 10.7681C15.1216 10.7941 13.2938 12.0022 9.75286 14.3924C9.23404 14.7487 8.76411 14.9223 8.34306 14.9132C7.87889 14.9031 6.98602 14.6507 6.32227 14.435C5.50814 14.1703 4.86109 14.0304 4.91743 13.581C4.94678 13.3469 5.26915 13.1075 5.88455 12.8627Z" fill="#F9F9F9"/>
</g>
<defs>
<clipPath id="clip0_228_4613">
<rect width="26" height="25.9999" rx="8" fill="white"/>
</clipPath>
</defs>
</svg>
