<svg width="449" height="234" viewBox="0 0 449 234" fill="none" xmlns="http://www.w3.org/2000/svg">
<g style="mix-blend-mode:plus-lighter">
<path d="M132.008 14.5942V65.1054L150.664 69.0716C153.783 70.0888 154.055 73.1123 153.8 74.4968L122.266 121.459H127.352V119.764L189.658 119.001V113.661H213.478V111.711H215.174V121.29L277.988 120.781L278.412 119.255L340.379 118.577V112.813H343.261H364.115V110.694H366.064V118.577H428.794L429.56 172.021H443.152C446.691 172.021 448.487 174.38 448.943 175.56V226.551C448.557 230.089 445.37 230.96 443.825 230.952L72.9593 232.901C58.6494 234.771 50.1258 229.276 47.6528 226.294L19.2973 172.836L1.41006 138.687C0.434381 136.167 1.00353 135.062 1.41006 134.825L20.4153 106.165V72.3214L36.9814 47.6247H38.3026L48.8724 31.5668V22.0134L49.5838 21.2003L56.698 22.0134V21.2003L57.2063 8.90277L62.1862 9.6142L68.0809 0.873779L129.975 13.6795L132.008 14.5942Z" fill="#0E4572"/>
</g>
</svg>
