<svg width="26" height="26" viewBox="0 0 26 26" fill="none" xmlns="http://www.w3.org/2000/svg">
<g clip-path="url(#clip0_228_4615)">
<rect width="26" height="26" rx="8" fill="#0F0F0F"/>
<path d="M0 12.48C0 6.59685 0 3.65531 1.82765 1.82765C3.65531 0 6.59685 0 12.48 0H13.52C19.4032 0 22.3447 0 24.1724 1.82765C26 3.65531 26 6.59685 26 12.48V13.52C26 19.4032 26 22.3447 24.1724 24.1724C22.3447 26 19.4032 26 13.52 26H12.48C6.59685 26 3.65531 26 1.82765 24.1724C0 22.3447 0 19.4032 0 13.52V12.48Z" fill="#0F0F0F"/>
<path d="M13.7897 18.7203C7.74911 18.7203 4.30372 14.6212 4.16016 7.80029H7.18597C7.28535 12.8067 9.516 14.9273 11.2829 15.3645V7.80029H14.1321V12.118C15.8769 11.9322 17.7099 9.96462 18.3283 7.80029H21.1775C20.7026 10.4674 18.7148 12.435 17.3013 13.2439C18.7148 13.8998 20.9788 15.6159 21.8402 18.7203H18.7038C18.0302 16.6434 16.3518 15.0366 14.1321 14.818V18.7203H13.7897Z" fill="#F9F9F9"/>
</g>
<defs>
<clipPath id="clip0_228_4615">
<rect width="26" height="26" rx="8" fill="white"/>
</clipPath>
</defs>
</svg>
