<svg width="26" height="27" viewBox="0 0 26 27" fill="none" xmlns="http://www.w3.org/2000/svg">
<g clip-path="url(#clip0_501_748)">
<rect y="0.787109" width="26" height="26" rx="8" fill="white"/>
<path d="M0 13.2671C0 7.38396 0 4.44242 1.82765 2.61476C3.65531 0.787109 6.59685 0.787109 12.48 0.787109H13.52C19.4032 0.787109 22.3447 0.787109 24.1724 2.61476C26 4.44242 26 7.38396 26 13.2671V14.3071C26 20.1903 26 23.1318 24.1724 24.9595C22.3447 26.7871 19.4032 26.7871 13.52 26.7871H12.48C6.59685 26.7871 3.65531 26.7871 1.82765 24.9595C0 23.1318 0 20.1903 0 14.3071V13.2671Z" fill="white"/>
<path d="M13.7896 19.5072C7.74899 19.5072 4.30359 15.4081 4.16003 8.58716H7.18584C7.28523 13.5935 9.51588 15.7141 11.2828 16.1514V8.58716H14.132V12.9049C15.8768 12.719 17.7098 10.7515 18.3282 8.58716H21.1773C20.7025 11.2543 18.7147 13.2219 17.3012 14.0308C18.7147 14.6866 20.9787 16.4028 21.84 19.5072H18.7037C18.0301 17.4303 16.3517 15.8234 14.132 15.6048V19.5072H13.7896Z" fill="black"/>
</g>
<defs>
<clipPath id="clip0_501_748">
<rect y="0.787109" width="26" height="26" rx="8" fill="white"/>
</clipPath>
</defs>
</svg>
