<svg width="26" height="26" viewBox="0 0 26 26" fill="none" xmlns="http://www.w3.org/2000/svg">
<rect width="26" height="25.9999" rx="8" fill="#0F0F0F"/>
<circle cx="12.5" cy="14.2871" r="9.5" fill="#0F0F0F"/>
<path d="M0 12.48C0 6.59683 -2.38419e-07 3.6553 1.82765 1.82765C3.65531 0 6.59685 0 12.48 0H13.52C19.4031 0 22.3447 0 24.1724 1.82765C26 3.6553 26 6.59683 26 12.48V13.52C26 19.4031 26 22.3446 24.1724 24.1723C22.3447 25.9999 19.4031 25.9999 13.52 25.9999H12.48C6.59685 25.9999 3.65531 25.9999 1.82765 24.1723C-2.38419e-07 22.3446 0 19.4031 0 13.52V12.48Z" fill="#0F0F0F"/>
<path d="M18.0981 7.71827C16.7492 6.34581 14.8846 5.60072 12.9802 5.60072C8.93355 5.60072 5.6803 8.85546 5.71994 12.8161C5.71994 14.0709 6.077 15.2866 6.67214 16.3845L5.6406 20.1099L9.48894 19.1295C10.5601 19.7178 11.7503 19.9923 12.9406 19.9923C16.9476 19.9923 20.2008 16.7375 20.2008 12.7769C20.2008 10.8554 19.447 9.05154 18.0981 7.71827ZM12.9802 18.7766C11.909 18.7766 10.8378 18.5022 9.92534 17.9532L9.68731 17.8355L7.38627 18.4237L7.98135 16.1886L7.82267 15.9533C6.077 13.1691 6.91016 9.48289 9.76665 7.75745C12.6231 6.03207 16.3128 6.85557 18.0585 9.67897C19.8041 12.5024 18.9709 16.1493 16.1145 17.8747C15.2019 18.4629 14.0911 18.7766 12.9802 18.7766ZM16.4715 14.4239L16.0351 14.2279C16.0351 14.2279 15.4004 13.9534 15.0036 13.7573C14.9639 13.7573 14.9243 13.718 14.8846 13.718C14.7655 13.718 14.6862 13.7573 14.6068 13.7965C14.6068 13.7965 14.5672 13.8357 14.0117 14.4631C13.972 14.5416 13.8927 14.5808 13.8134 14.5808H13.7737C13.734 14.5808 13.6547 14.5416 13.615 14.5024L13.4166 14.4239C12.9802 14.2279 12.5835 13.9925 12.2661 13.6789C12.1867 13.6004 12.0677 13.522 11.9884 13.4436C11.7106 13.1691 11.4329 12.8553 11.2346 12.5024L11.1949 12.424C11.1553 12.3848 11.1553 12.3456 11.1156 12.2672C11.1156 12.1887 11.1156 12.1103 11.1553 12.0711C11.1553 12.0711 11.3139 11.875 11.4329 11.7574C11.5123 11.6789 11.552 11.5613 11.6313 11.4829C11.7106 11.3652 11.7503 11.2084 11.7106 11.0907C11.671 10.8946 11.1949 9.83587 11.0759 9.60061C10.9965 9.48295 10.9172 9.44376 10.7982 9.40452H10.3618C10.2824 9.40452 10.2031 9.44376 10.1237 9.44376L10.084 9.48295C10.0047 9.52218 9.92534 9.60061 9.846 9.63979C9.76666 9.71827 9.72696 9.79663 9.64762 9.87511C9.3699 10.228 9.21121 10.6594 9.21121 11.0907C9.21121 11.4044 9.29055 11.7182 9.40959 11.9927L9.44929 12.1103C9.80635 12.8553 10.2824 13.522 10.9172 14.1102L11.0759 14.267C11.1949 14.3847 11.3139 14.4631 11.3933 14.5807C12.2264 15.2866 13.1786 15.7964 14.2498 16.0709C14.3688 16.1101 14.5275 16.1101 14.6465 16.1493H15.0432C15.2416 16.1493 15.4796 16.0709 15.6384 15.9925C15.7574 15.9141 15.8367 15.9141 15.916 15.8356L15.9954 15.7572C16.0748 15.6787 16.1541 15.6396 16.2335 15.5611C16.3128 15.4827 16.3921 15.4043 16.4318 15.3258C16.5112 15.169 16.5508 14.9729 16.5905 14.7769V14.5024C16.5905 14.5024 16.5508 14.4631 16.4715 14.4239Z" fill="#F9F9F9"/>
</svg>
