<svg width="26" height="27" viewBox="0 0 26 27" fill="none" xmlns="http://www.w3.org/2000/svg">
<rect y="0.787109" width="26" height="25.9999" rx="8" fill="white"/>
<path d="M0 13.2671C0 7.38394 0 4.44241 1.82765 2.61476C3.65531 0.787109 6.59685 0.787109 12.48 0.787109H13.52C19.4031 0.787109 22.3447 0.787109 24.1724 2.61476C26 4.44241 26 7.38394 26 13.2671V14.3071C26 20.1902 26 23.1317 24.1724 24.9594C22.3447 26.787 19.4031 26.787 13.52 26.787H12.48C6.59685 26.787 3.65531 26.787 1.82765 24.9594C0 23.1317 0 20.1902 0 14.3071V13.2671Z" fill="url(#paint0_linear_501_753)"/>
<path d="M9.56834 18.9771L9.80636 19.0948C10.7983 19.683 11.9091 19.9575 13.02 19.9575C16.5112 19.9575 19.3677 17.1341 19.3677 13.6833C19.3677 12.0363 18.6933 10.4285 17.5031 9.25208C16.3129 8.07564 14.7259 7.40903 13.02 7.40903C9.5287 7.40903 6.67215 10.2324 6.71185 13.7225C6.71185 14.8989 7.06891 16.0361 7.66399 17.0164L7.82267 17.2517L7.18795 19.5654L9.56834 18.9771Z" fill="white"/>
<path d="M18.1775 8.62464C16.8286 7.25218 14.964 6.5071 13.0596 6.5071C9.01295 6.5071 5.7597 9.76184 5.79934 13.7224C5.79934 14.9773 6.1564 16.193 6.75154 17.2909L5.72 21.0162L9.56833 20.0359C10.6395 20.6241 11.8297 20.8986 13.02 20.8986C17.027 20.8986 20.2802 17.6438 20.2802 13.6833C20.2802 11.7618 19.5263 9.95792 18.1775 8.62464ZM13.0596 19.683C11.9884 19.683 10.9172 19.4086 10.0047 18.8596L9.76671 18.7419L7.46566 19.3301L8.06075 17.0949L7.90207 16.8596C6.1564 14.0755 6.98956 10.3893 9.84605 8.66383C12.7025 6.93844 16.3922 7.76195 18.1379 10.5853C19.8835 13.4087 19.0503 17.0557 16.1939 18.7811C15.2813 19.3693 14.1705 19.683 13.0596 19.683ZM16.5509 15.3303L16.1145 15.1342C16.1145 15.1342 15.4797 14.8597 15.083 14.6637C15.0433 14.6637 15.0036 14.6244 14.964 14.6244C14.8449 14.6244 14.7656 14.6637 14.6862 14.7029C14.6862 14.7029 14.6466 14.7421 14.0911 15.3695C14.0514 15.4479 13.9721 15.4872 13.8928 15.4872H13.8531C13.8134 15.4872 13.7341 15.4479 13.6944 15.4087L13.496 15.3303C13.0596 15.1342 12.6629 14.8989 12.3455 14.5852C12.2661 14.5068 12.1471 14.4284 12.0678 14.35C11.79 14.0755 11.5123 13.7617 11.314 13.4088L11.2743 13.3304C11.2347 13.2911 11.2347 13.252 11.195 13.1735C11.195 13.0951 11.195 13.0167 11.2347 12.9775C11.2347 12.9775 11.3933 12.7814 11.5123 12.6638C11.5917 12.5853 11.6314 12.4677 11.7107 12.3893C11.79 12.2716 11.8297 12.1148 11.79 11.9971C11.7504 11.801 11.2743 10.7422 11.1553 10.507C11.0759 10.3893 10.9966 10.3501 10.8776 10.3109H10.4412C10.3618 10.3109 10.2825 10.3501 10.2031 10.3501L10.1634 10.3893C10.0841 10.4286 10.0047 10.507 9.92539 10.5462C9.84605 10.6246 9.80635 10.703 9.72701 10.7815C9.44929 11.1344 9.29061 11.5658 9.29061 11.9971C9.29061 12.3108 9.36995 12.6245 9.48899 12.899L9.52869 13.0167C9.88575 13.7617 10.3618 14.4284 10.9966 15.0166L11.1553 15.1734C11.2743 15.2911 11.3933 15.3695 11.4727 15.4871C12.3058 16.193 13.258 16.7028 14.3292 16.9773C14.4482 17.0165 14.6069 17.0165 14.7259 17.0557H15.1226C15.321 17.0557 15.559 16.9773 15.7178 16.8989C15.8368 16.8204 15.9161 16.8204 15.9954 16.742L16.0748 16.6635C16.1542 16.5851 16.2335 16.5459 16.3129 16.4675C16.3922 16.3891 16.4715 16.3107 16.5112 16.2322C16.5906 16.0754 16.6302 15.8793 16.6699 15.6832V15.4087C16.6699 15.4087 16.6302 15.3695 16.5509 15.3303Z" fill="black"/>
<defs>
<linearGradient id="paint0_linear_501_753" x1="13" y1="0.787109" x2="13" y2="26.787" gradientUnits="userSpaceOnUse">
<stop stop-color="white"/>
<stop offset="0.765625" stop-color="white"/>
</linearGradient>
</defs>
</svg>
